<?xml version="1.0" standalone="no"?>
<!DOCTYPE svg PUBLIC "-//W3C//DTD SVG 20010904//EN"
 "http://www.w3.org/TR/2001/REC-SVG-20010904/DTD/svg10.dtd">
<svg version="1.0" xmlns="http://www.w3.org/2000/svg"
 width="463.000000pt" height="127.000000pt" viewBox="0 0 463.000000 127.000000"
 preserveAspectRatio="xMidYMid meet">

<g transform="translate(0.000000,127.000000) scale(0.100000,-0.100000)"
fill="#000000" stroke="none">
<path d="M2037 1219 c-126 -30 -213 -136 -234 -285 l-6 -44 -68 0 c-74 0 -71
2 -85 -72 l-6 -38 66 0 c46 0 66 -4 66 -12 -1 -7 -29 -152 -63 -323 l-63 -310
-357 -3 -357 -2 0 -55 0 -55 398 0 c218 0 406 3 417 6 19 5 29 45 95 380 l75
374 116 0 117 0 11 50 c6 28 11 53 11 55 0 3 -52 5 -116 5 l-116 0 7 43 c12
70 38 129 68 151 23 17 47 22 135 26 l106 5 12 58 11 57 -101 -1 c-56 -1 -118
-5 -139 -10z"/>
<path d="M142 613 c-62 -313 -113 -571 -112 -575 0 -15 480 -9 553 7 193 41
315 176 325 361 4 67 1 87 -16 120 -26 50 -67 89 -117 110 l-39 16 36 12 c127
44 198 151 198 298 0 65 -14 100 -57 139 -71 67 -136 79 -426 79 l-232 0 -113
-567z m605 414 c45 -24 63 -54 63 -105 0 -80 -41 -146 -115 -185 -35 -19 -61
-22 -209 -25 l-169 -4 6 28 c3 16 18 94 34 172 l28 144 165 -4 c132 -3 171 -7
197 -21z m-92 -465 c88 -30 116 -108 80 -228 -19 -64 -63 -116 -122 -145 -44
-21 -64 -24 -225 -27 -104 -2 -178 0 -178 5 0 5 18 99 40 208 22 109 40 200
40 202 0 2 71 3 158 3 121 -1 168 -5 207 -18z"/>
<path d="M2652 894 c-72 -19 -107 -39 -163 -91 l-47 -44 9 43 c5 24 11 53 14
66 5 21 3 22 -67 22 l-73 0 -86 -430 -86 -430 72 0 72 0 51 258 c59 292 82
354 159 422 73 64 177 84 279 55 18 -6 21 0 33 61 10 55 10 69 -1 75 -20 13
-107 9 -166 -7z"/>
<path d="M3183 896 c-145 -37 -266 -137 -333 -277 -128 -266 -76 -500 129
-581 76 -29 262 -32 366 -4 129 34 142 42 149 89 4 23 9 52 12 64 l6 22 -59
-24 c-91 -37 -215 -58 -299 -52 -151 11 -224 88 -224 235 l0 52 328 0 329 0
11 64 c36 194 -11 332 -133 391 -67 33 -198 43 -282 21z m197 -129 c61 -32 90
-89 90 -174 l0 -63 -255 0 c-140 0 -255 2 -255 4 0 13 37 87 60 122 80 116
251 169 360 111z"/>
<path d="M4153 896 c-145 -37 -266 -137 -333 -277 -128 -266 -76 -500 129
-581 76 -29 262 -32 366 -4 129 34 142 42 149 89 4 23 9 52 12 64 l6 22 -59
-24 c-91 -37 -215 -58 -299 -52 -151 11 -224 88 -224 235 l0 52 328 0 329 0
11 64 c36 194 -11 332 -133 391 -67 33 -198 43 -282 21z m197 -129 c61 -32 90
-89 90 -174 l0 -63 -255 0 c-140 0 -255 2 -255 4 0 13 37 87 60 122 80 116
251 169 360 111z"/>
</g>
</svg>
